<svg xmlns="http://www.w3.org/2000/svg" viewBox="0 0 3397 873" fill="none">
        <path d="M429.282 711.285C275.331 711.285 151.3 578.079 162.07 418.712C171.342 281.467 282.035 171.329 416.693 164.998C470.471 162.451 520.968 176.241 563.94 201.856C570.93 206.041 579.81 203.239 583.483 195.853C603.061 156.702 627.561 119.953 656.553 86.2972C662.295 79.6024 660.904 69.3054 653.487 64.6481C579.524 18.2207 490.798 -5.97544 396.295 1.2652C181.683 17.7113 10.6148 197.563 0.486864 416.929C-11.1032 667.986 185.749 876 429.282 876C511.375 876 588.155 852.313 653.451 811.344C660.904 806.686 662.331 796.389 656.553 789.658C627.561 756.002 603.061 719.253 583.483 680.103C579.81 672.753 570.966 669.915 563.976 674.099C524.391 697.713 478.352 711.285 429.282 711.285Z" fill="white"></path>
        <path d="M851.014 234.638L756.832 138.545C751.304 132.905 742.21 132.905 736.861 138.727C582.66 306.681 582.66 569.308 736.861 737.262C742.21 743.084 751.304 743.084 756.832 737.444L851.014 641.351C740.962 529.067 740.962 346.959 851.014 234.674" fill="#ffcc8e"></path>
        <path d="M1408.94 397.009C1408.94 332.607 1373.42 293.057 1318.85 293.057C1264.29 293.057 1226.81 332.644 1226.81 397.009C1226.81 461.374 1262.97 501.653 1318.85 501.653C1374.74 501.653 1408.94 461.411 1408.94 397.009ZM1128.89 396.318C1128.89 280.94 1195.29 205.842 1301.13 205.842C1347.17 205.842 1385.93 225.308 1408.94 256.162V230.001C1408.94 222.615 1414.86 216.575 1422.09 216.575H1493.1C1500.34 216.575 1506.26 222.615 1506.26 230.001V565.363C1506.26 572.749 1500.34 578.789 1493.1 578.789H1422.09C1414.86 578.789 1408.94 572.749 1408.94 565.363V537.856C1385.93 569.365 1347.13 588.831 1301.13 588.831C1195.29 588.831 1128.89 512.35 1128.89 396.318Z" fill="white"></path>
        <path d="M1612.38 428.554V295.094H1553.22C1545.98 295.094 1540.06 289.054 1540.06 281.668V230.001C1540.06 222.615 1545.98 216.575 1553.22 216.575H1612.38V122.665C1612.38 115.278 1618.3 109.238 1625.54 109.238H1696.55C1703.79 109.238 1709.71 115.278 1709.71 122.665V216.575H1800.43C1807.67 216.575 1813.59 222.615 1813.59 230.001V281.668C1813.59 289.054 1807.67 295.094 1800.43 295.094H1709.71V431.247C1709.71 505.691 1743.9 508.383 1810.95 495.648C1818.83 494.302 1826.71 498.996 1826.71 507.037L1828.03 562.706C1828.03 567.4 1825.39 572.094 1820.79 574.095C1799.11 583.482 1772.79 589.522 1743.87 589.522C1656.43 589.522 1612.38 535.854 1612.38 428.554Z" fill="white"></path>
        <path d="M1859.59 565.363V55.6076C1859.59 48.2214 1865.51 42.1815 1872.75 42.1815H1944.39C1951.63 42.1815 1957.55 48.2214 1957.55 55.6076V254.161C1983.84 221.96 2019.36 205.878 2064.04 205.878C2165.92 205.878 2210.64 276.975 2210.64 389.659V565.4C2210.64 572.786 2204.72 578.826 2197.48 578.826H2126.48C2119.24 578.826 2113.32 572.786 2113.32 565.4V390.314C2113.32 329.951 2090.96 293.057 2041.68 293.057C1985.16 293.057 1957.52 334.645 1957.52 397.009V565.363C1957.52 572.749 1951.6 578.789 1944.36 578.789H1872.71C1865.48 578.789 1859.56 572.749 1859.56 565.363" fill="white"></path>
        <path d="M2609.7 230.001V565.363C2609.7 572.749 2603.78 578.789 2596.54 578.789H2524.89C2517.65 578.789 2511.73 572.749 2511.73 565.363V541.203C2485.45 573.404 2449.93 589.486 2405.25 589.486C2303.36 589.486 2258.64 518.39 2258.64 405.705V229.965C2258.64 222.578 2264.56 216.539 2271.8 216.539H2342.81C2350.05 216.539 2355.97 222.578 2355.97 229.965V405.014C2355.97 465.376 2378.32 502.271 2427.61 502.271C2484.13 502.271 2511.77 460.683 2511.77 398.282V229.928C2511.77 222.542 2517.69 216.502 2524.93 216.502H2596.57C2603.81 216.502 2609.73 222.542 2609.73 229.928" fill="white"></path>
        <path d="M2662.94 565.363V230.001C2662.94 222.615 2668.86 216.575 2676.1 216.575H2747.74C2754.98 216.575 2760.9 222.615 2760.9 230.001V252.815C2787.19 221.96 2820.06 205.878 2862.82 205.878C2919.35 205.878 2958.15 232.039 2979.83 278.321C3004.83 230.693 3048.19 205.878 3103.43 205.878C3196.79 205.878 3241.48 276.974 3241.48 389.659V565.399C3241.48 572.786 3235.56 578.825 3228.32 578.825H3157.32C3150.08 578.825 3144.16 572.786 3144.16 565.399V390.314C3144.16 329.951 3119.84 293.057 3079.08 293.057C3026.47 293.057 3000.83 334.645 3000.83 397.009V565.363C3000.83 572.749 2994.91 578.789 2987.67 578.789H2916.67C2909.43 578.789 2903.51 572.749 2903.51 565.363V390.278C2903.51 329.915 2879.19 293.02 2838.43 293.02C2785.83 293.02 2760.87 334.608 2760.87 396.973V565.327C2760.87 572.713 2754.95 578.753 2747.71 578.753H2676.06C2668.82 578.753 2662.9 572.713 2662.9 565.327" fill="white"></path>
        <path d="M3294.72 565.363V230.002C3294.72 222.615 3300.64 216.575 3307.88 216.575H3379.52C3386.76 216.575 3392.68 222.615 3392.68 230.002V565.363C3392.68 572.749 3386.76 578.789 3379.52 578.789H3307.88C3300.64 578.789 3294.72 572.749 3294.72 565.363ZM3291.44 128.705V55.6076C3291.44 48.2214 3297.36 42.1815 3304.6 42.1815H3382.84C3390.08 42.1815 3396 48.2214 3396 55.6076V128.705C3396 136.092 3390.08 142.131 3382.84 142.131H3304.6C3297.36 142.131 3291.44 136.092 3291.44 128.705Z" fill="white"></path>
        <path d="M1155.86 791.579C1154.64 791.579 1153.63 791.188 1152.85 790.405C1152.07 789.622 1151.69 788.616 1151.69 787.385V676.663C1151.69 675.433 1152.07 674.427 1152.85 673.644C1153.63 672.861 1154.64 672.469 1155.86 672.469H1173.89C1175.01 672.469 1175.95 672.861 1176.73 673.644C1177.51 674.427 1177.9 675.433 1177.9 676.663V714.41C1180.91 710.831 1184.58 707.979 1188.92 705.854C1193.26 703.729 1198.5 702.666 1204.62 702.666C1211.19 702.666 1216.98 704.176 1221.99 707.196C1227.11 710.104 1231.11 714.41 1234.01 720.113C1236.9 725.705 1238.35 732.528 1238.35 740.58V787.385C1238.35 788.616 1237.96 789.622 1237.18 790.405C1236.4 791.188 1235.4 791.579 1234.18 791.579H1215.97C1214.86 791.579 1213.92 791.188 1213.14 790.405C1212.36 789.622 1211.97 788.616 1211.97 787.385V741.587C1211.97 735.659 1210.52 731.074 1207.63 727.83C1204.73 724.475 1200.61 722.798 1195.27 722.798C1190.04 722.798 1185.81 724.475 1182.58 727.83C1179.46 731.074 1177.9 735.659 1177.9 741.587V787.385C1177.9 788.616 1177.51 789.622 1176.73 790.405C1175.95 791.188 1175.01 791.579 1173.89 791.579H1155.86Z" fill="white"></path>
        <path d="M1297.07 793.257C1284.27 793.257 1274.09 789.678 1266.52 782.52C1259.06 775.363 1255.11 764.961 1254.66 751.317C1254.66 750.422 1254.66 749.248 1254.66 747.794C1254.66 746.228 1254.66 744.998 1254.66 744.103C1255.11 735.492 1257.05 728.11 1260.5 721.959C1263.96 715.696 1268.8 710.943 1275.03 707.699C1281.27 704.344 1288.56 702.666 1296.91 702.666C1306.26 702.666 1314.05 704.624 1320.29 708.538C1326.63 712.341 1331.36 717.597 1334.48 724.307C1337.71 730.906 1339.32 738.511 1339.32 747.123V750.981C1339.32 752.1 1338.88 753.05 1337.99 753.833C1337.21 754.616 1336.26 755.008 1335.15 755.008H1280.54C1280.54 755.119 1280.54 755.343 1280.54 755.679C1280.54 755.902 1280.54 756.126 1280.54 756.35C1280.65 759.929 1281.32 763.228 1282.55 766.248C1283.88 769.155 1285.72 771.504 1288.06 773.294C1290.51 775.083 1293.4 775.978 1296.74 775.978C1299.52 775.978 1301.81 775.586 1303.59 774.803C1305.37 774.021 1306.82 773.07 1307.93 771.952C1309.15 770.833 1310.04 769.882 1310.6 769.1C1311.6 767.981 1312.38 767.31 1312.94 767.086C1313.61 766.751 1314.61 766.583 1315.94 766.583H1333.31C1334.42 766.583 1335.31 766.919 1335.98 767.59C1336.76 768.149 1337.1 768.988 1336.98 770.106C1336.87 771.896 1335.93 774.132 1334.15 776.817C1332.48 779.389 1329.97 781.961 1326.63 784.534C1323.29 786.994 1319.12 789.063 1314.11 790.741C1309.21 792.418 1303.53 793.257 1297.07 793.257ZM1280.54 739.741H1313.27V739.406C1313.27 735.38 1312.6 731.913 1311.27 729.005C1310.04 725.985 1308.21 723.636 1305.76 721.959C1303.31 720.281 1300.36 719.442 1296.91 719.442C1293.46 719.442 1290.51 720.281 1288.06 721.959C1285.61 723.636 1283.72 725.985 1282.38 729.005C1281.16 731.913 1280.54 735.38 1280.54 739.406V739.741Z" fill="white"></path>
        <path d="M1397.43 791.579C1390.53 791.579 1384.63 790.461 1379.73 788.224C1374.84 785.876 1371.11 782.297 1368.55 777.488C1366.1 772.678 1364.87 766.639 1364.87 759.369V724.14H1351.85C1350.62 724.14 1349.62 723.748 1348.84 722.965C1348.06 722.183 1347.67 721.176 1347.67 719.946V708.538C1347.67 707.308 1348.06 706.301 1348.84 705.518C1349.62 704.735 1350.62 704.344 1351.85 704.344H1364.87V676.663C1364.87 675.433 1365.26 674.427 1366.04 673.644C1366.93 672.861 1367.93 672.469 1369.05 672.469H1385.41C1386.64 672.469 1387.64 672.861 1388.42 673.644C1389.2 674.427 1389.59 675.433 1389.59 676.663V704.344H1410.46C1411.57 704.344 1412.52 704.735 1413.3 705.518C1414.08 706.301 1414.47 707.308 1414.47 708.538V719.946C1414.47 721.176 1414.08 722.183 1413.3 722.965C1412.52 723.748 1411.57 724.14 1410.46 724.14H1389.59V757.356C1389.59 761.606 1390.31 764.961 1391.76 767.422C1393.31 769.771 1395.99 770.945 1399.77 770.945H1411.96C1413.07 770.945 1414.02 771.336 1414.8 772.119C1415.58 772.902 1415.97 773.853 1415.97 774.971V787.385C1415.97 788.616 1415.58 789.622 1414.8 790.405C1414.02 791.188 1413.07 791.579 1411.96 791.579H1397.43Z" fill="white"></path>
        <path d="M1498.56 791.579C1496.78 791.579 1495.33 791.132 1494.21 790.237C1493.21 789.231 1492.49 788.057 1492.04 786.714L1456.98 679.18C1456.87 678.621 1456.81 678.117 1456.81 677.67C1456.81 676.775 1457.14 675.992 1457.81 675.321C1458.48 674.538 1459.31 674.147 1460.32 674.147H1477.85C1479.52 674.147 1480.8 674.65 1481.69 675.657C1482.69 676.552 1483.3 677.39 1483.53 678.173L1509.58 760.208L1535.46 678.173C1535.79 677.39 1536.41 676.552 1537.3 675.657C1538.19 674.65 1539.47 674.147 1541.14 674.147H1558.67C1559.67 674.147 1560.51 674.538 1561.18 675.321C1561.84 675.992 1562.18 676.775 1562.18 677.67C1562.18 678.117 1562.12 678.621 1562.01 679.18L1526.94 786.714C1526.61 788.057 1525.89 789.231 1524.77 790.237C1523.77 791.132 1522.32 791.579 1520.43 791.579H1498.56Z" fill="white"></path>
        <path d="M1581.15 791.579C1579.93 791.579 1578.92 791.188 1578.14 790.405C1577.36 789.622 1576.98 788.616 1576.98 787.385V676.663C1576.98 675.433 1577.36 674.427 1578.14 673.644C1578.92 672.861 1579.93 672.469 1581.15 672.469H1597.85C1598.96 672.469 1599.91 672.861 1600.69 673.644C1601.47 674.427 1601.86 675.433 1601.86 676.663V787.385C1601.86 788.616 1601.47 789.622 1600.69 790.405C1599.91 791.188 1598.96 791.579 1597.85 791.579H1581.15Z" fill="white"></path>
        <path d="M1648.51 793.257C1642.61 793.257 1637.32 792.139 1632.65 789.902C1627.97 787.553 1624.24 784.422 1621.46 780.507C1618.68 776.593 1617.28 772.231 1617.28 767.422C1617.28 759.481 1620.46 753.218 1626.8 748.633C1633.26 744.047 1641.72 740.916 1652.18 739.238L1674.06 736.051V733.031C1674.06 728.669 1673.06 725.314 1671.05 722.965C1669.05 720.617 1665.54 719.442 1660.53 719.442C1656.86 719.442 1653.91 720.169 1651.68 721.623C1649.46 723.077 1647.73 724.979 1646.51 727.327C1645.62 728.781 1644.34 729.508 1642.67 729.508H1626.8C1625.58 729.508 1624.63 729.172 1623.96 728.501C1623.3 727.719 1623.02 726.824 1623.13 725.817C1623.13 723.916 1623.85 721.679 1625.3 719.107C1626.75 716.535 1628.97 714.018 1631.98 711.558C1634.98 708.985 1638.83 706.86 1643.5 705.183C1648.18 703.505 1653.91 702.666 1660.7 702.666C1667.71 702.666 1673.72 703.505 1678.73 705.183C1683.74 706.86 1687.75 709.209 1690.76 712.229C1693.76 715.248 1695.99 718.771 1697.44 722.798C1698.88 726.712 1699.61 730.962 1699.61 735.547V787.385C1699.61 788.616 1699.22 789.622 1698.44 790.405C1697.66 791.188 1696.66 791.579 1695.43 791.579H1679.07C1677.96 791.579 1677.01 791.188 1676.23 790.405C1675.45 789.622 1675.06 788.616 1675.06 787.385V781.178C1673.61 783.303 1671.67 785.316 1669.22 787.218C1666.77 789.007 1663.82 790.461 1660.37 791.579C1657.03 792.698 1653.07 793.257 1648.51 793.257ZM1655.19 775.81C1658.86 775.81 1662.15 775.027 1665.04 773.461C1667.94 771.896 1670.22 769.491 1671.89 766.248C1673.56 763.004 1674.39 758.922 1674.39 754.001V751.149L1658.86 753.666C1652.85 754.672 1648.45 756.182 1645.67 758.195C1642.89 760.208 1641.5 762.669 1641.5 765.577C1641.5 767.702 1642.11 769.547 1643.33 771.113C1644.67 772.678 1646.4 773.853 1648.51 774.636C1650.63 775.419 1652.85 775.81 1655.19 775.81Z" fill="white"></path>
        <path d="M1745.37 793.257C1739.47 793.257 1734.19 792.139 1729.51 789.902C1724.84 787.553 1721.11 784.422 1718.32 780.507C1715.54 776.593 1714.15 772.231 1714.15 767.422C1714.15 759.481 1717.32 753.218 1723.67 748.633C1730.12 744.047 1738.58 740.916 1749.05 739.238L1770.92 736.051V733.031C1770.92 728.669 1769.92 725.314 1767.92 722.965C1765.91 720.617 1762.41 719.442 1757.4 719.442C1753.72 719.442 1750.77 720.169 1748.55 721.623C1746.32 723.077 1744.6 724.979 1743.37 727.327C1742.48 728.781 1741.2 729.508 1739.53 729.508H1723.67C1722.44 729.508 1721.5 729.172 1720.83 728.501C1720.16 727.719 1719.88 726.824 1719.99 725.817C1719.99 723.916 1720.72 721.679 1722.16 719.107C1723.61 716.535 1725.84 714.018 1728.84 711.558C1731.85 708.985 1735.69 706.86 1740.37 705.183C1745.04 703.505 1750.77 702.666 1757.56 702.666C1764.58 702.666 1770.59 703.505 1775.6 705.183C1780.61 706.86 1784.62 709.209 1787.62 712.229C1790.63 715.248 1792.85 718.771 1794.3 722.798C1795.75 726.712 1796.47 730.962 1796.47 735.547V787.385C1796.47 788.616 1796.08 789.622 1795.3 790.405C1794.52 791.188 1793.52 791.579 1792.3 791.579H1775.93C1774.82 791.579 1773.87 791.188 1773.09 790.405C1772.31 789.622 1771.93 788.616 1771.93 787.385V781.178C1770.48 783.303 1768.53 785.316 1766.08 787.218C1763.63 789.007 1760.68 790.461 1757.23 791.579C1753.89 792.698 1749.94 793.257 1745.37 793.257ZM1752.05 775.81C1755.73 775.81 1759.01 775.027 1761.91 773.461C1764.8 771.896 1767.08 769.491 1768.75 766.248C1770.42 763.004 1771.26 758.922 1771.26 754.001V751.149L1755.73 753.666C1749.72 754.672 1745.32 756.182 1742.54 758.195C1739.75 760.208 1738.36 762.669 1738.36 765.577C1738.36 767.702 1738.97 769.547 1740.2 771.113C1741.53 772.678 1743.26 773.853 1745.37 774.636C1747.49 775.419 1749.72 775.81 1752.05 775.81Z" fill="white"></path>
        <path d="M1820.7 791.579C1819.58 791.579 1818.64 791.188 1817.86 790.405C1817.08 789.622 1816.69 788.616 1816.69 787.385V708.538C1816.69 707.308 1817.08 706.301 1817.86 705.518C1818.64 704.735 1819.58 704.344 1820.7 704.344H1836.23C1837.34 704.344 1838.29 704.735 1839.07 705.518C1839.96 706.301 1840.4 707.308 1840.4 708.538V714.242C1842.63 711.11 1845.69 708.426 1849.59 706.189C1853.59 703.953 1858.33 702.778 1863.78 702.666C1876.69 702.443 1885.54 707.364 1890.33 717.429C1892.89 713.067 1896.56 709.545 1901.35 706.86C1906.25 704.064 1911.59 702.666 1917.38 702.666C1923.17 702.666 1928.4 704.008 1933.08 706.693C1937.75 709.265 1941.43 713.291 1944.1 718.771C1946.88 724.14 1948.27 731.074 1948.27 739.574V787.385C1948.27 788.616 1947.89 789.622 1947.11 790.405C1946.33 791.188 1945.38 791.579 1944.27 791.579H1927.74C1926.62 791.579 1925.68 791.188 1924.9 790.405C1924.12 789.622 1923.73 788.616 1923.73 787.385V740.916C1923.73 736.33 1923.06 732.751 1921.72 730.179C1920.39 727.495 1918.61 725.594 1916.38 724.475C1914.27 723.357 1911.87 722.798 1909.2 722.798C1906.86 722.798 1904.58 723.357 1902.35 724.475C1900.24 725.594 1898.46 727.495 1897.01 730.179C1895.67 732.751 1895.01 736.33 1895.01 740.916V787.385C1895.01 788.616 1894.62 789.622 1893.84 790.405C1893.06 791.188 1892.06 791.579 1890.83 791.579H1874.47C1873.24 791.579 1872.24 791.188 1871.46 790.405C1870.68 789.622 1870.29 788.616 1870.29 787.385V740.916C1870.29 736.33 1869.62 732.751 1868.29 730.179C1866.95 727.495 1865.17 725.594 1862.95 724.475C1860.83 723.357 1858.49 722.798 1855.93 722.798C1853.59 722.798 1851.31 723.413 1849.09 724.643C1846.86 725.761 1845.02 727.607 1843.57 730.179C1842.24 732.751 1841.57 736.274 1841.57 740.748V787.385C1841.57 788.616 1841.18 789.622 1840.4 790.405C1839.62 791.188 1838.68 791.579 1837.56 791.579H1820.7Z" fill="white"></path>
        <path d="M2002.74 793.257C1995.84 793.257 1989.88 792.474 1984.87 790.908C1979.98 789.231 1975.97 787.218 1972.85 784.869C1969.85 782.52 1967.56 780.172 1966.01 777.823C1964.56 775.363 1963.78 773.294 1963.67 771.616C1963.56 770.386 1963.95 769.379 1964.84 768.596C1965.73 767.813 1966.62 767.422 1967.51 767.422H1983.71C1984.04 767.422 1984.37 767.478 1984.71 767.59C1985.04 767.702 1985.38 767.981 1985.71 768.428C1987.16 769.435 1988.66 770.609 1990.22 771.952C1991.78 773.182 1993.56 774.244 1995.56 775.139C1997.68 776.034 2000.29 776.481 2003.41 776.481C2007.08 776.481 2010.2 775.754 2012.76 774.3C2015.32 772.734 2016.6 770.554 2016.6 767.758C2016.6 765.744 2015.99 764.067 2014.76 762.725C2013.65 761.383 2011.48 760.152 2008.25 759.034C2005.02 757.916 2000.24 756.685 1993.89 755.343C1987.88 754.001 1982.76 752.212 1978.53 749.975C1974.3 747.738 1971.13 744.942 1969.01 741.587C1966.9 738.12 1965.84 733.982 1965.84 729.173C1965.84 724.811 1967.17 720.617 1969.85 716.591C1972.63 712.564 1976.69 709.265 1982.04 706.693C1987.38 704.008 1994.06 702.666 2002.07 702.666C2008.2 702.666 2013.54 703.449 2018.1 705.015C2022.78 706.469 2026.68 708.37 2029.79 710.719C2032.91 712.956 2035.25 715.304 2036.81 717.765C2038.48 720.113 2039.37 722.182 2039.48 723.972C2039.59 725.09 2039.26 726.041 2038.48 726.824C2037.7 727.607 2036.81 727.998 2035.8 727.998H2020.94C2020.39 727.998 2019.89 727.942 2019.44 727.83C2019 727.607 2018.61 727.327 2018.27 726.992C2016.94 726.097 2015.54 725.09 2014.1 723.972C2012.76 722.742 2011.15 721.679 2009.25 720.784C2007.36 719.89 2004.91 719.442 2001.91 719.442C1998.23 719.442 1995.39 720.281 1993.39 721.959C1991.5 723.525 1990.55 725.538 1990.55 727.998C1990.55 729.564 1991.05 731.018 1992.05 732.36C1993.06 733.702 1995.12 734.932 1998.23 736.051C2001.35 737.169 2006.08 738.343 2012.43 739.574C2020 740.916 2026.01 742.929 2030.46 745.613C2034.91 748.297 2038.09 751.429 2039.98 755.008C2041.98 758.475 2042.99 762.221 2042.99 766.248C2042.99 771.504 2041.43 776.201 2038.31 780.339C2035.19 784.366 2030.63 787.553 2024.62 789.902C2018.72 792.139 2011.42 793.257 2002.74 793.257Z" fill="white"></path>
        <path d="M2101.88 791.579C2100.66 791.579 2099.65 791.188 2098.87 790.405C2098.09 789.622 2097.71 788.616 2097.71 787.385V678.341C2097.71 677.111 2098.09 676.104 2098.87 675.321C2099.65 674.538 2100.66 674.147 2101.88 674.147H2143.79C2154.93 674.147 2164.22 675.936 2171.68 679.515C2179.14 682.982 2184.82 688.127 2188.71 694.949C2192.72 701.66 2194.84 709.992 2195.06 719.946C2195.17 724.867 2195.22 729.173 2195.22 732.863C2195.22 736.554 2195.17 740.804 2195.06 745.613C2194.72 756.014 2192.66 764.626 2188.88 771.448C2185.09 778.271 2179.53 783.359 2172.18 786.714C2164.83 789.958 2155.65 791.579 2144.63 791.579H2101.88ZM2124.26 769.938H2143.79C2149.36 769.938 2153.92 769.1 2157.49 767.422C2161.05 765.744 2163.66 763.116 2165.33 759.537C2167.12 755.846 2168.06 751.093 2168.17 745.278C2168.28 742.034 2168.34 739.126 2168.34 736.554C2168.45 733.982 2168.45 731.409 2168.34 728.837C2168.34 726.265 2168.28 723.413 2168.17 720.281C2167.95 711.893 2165.78 705.742 2161.66 701.828C2157.65 697.801 2151.42 695.788 2142.96 695.788H2124.26V769.938Z" fill="white"></path>
        <path d="M2239.81 793.257C2233.91 793.257 2228.62 792.139 2223.94 789.902C2219.27 787.553 2215.54 784.422 2212.76 780.507C2209.97 776.593 2208.58 772.231 2208.58 767.422C2208.58 759.481 2211.75 753.218 2218.1 748.633C2224.56 744.047 2233.02 740.916 2243.48 739.238L2265.36 736.051V733.031C2265.36 728.669 2264.35 725.314 2262.35 722.965C2260.35 720.617 2256.84 719.442 2251.83 719.442C2248.16 719.442 2245.21 720.169 2242.98 721.623C2240.75 723.077 2239.03 724.979 2237.8 727.327C2236.91 728.781 2235.63 729.508 2233.96 729.508H2218.1C2216.87 729.508 2215.93 729.172 2215.26 728.501C2214.59 727.719 2214.31 726.824 2214.43 725.817C2214.43 723.916 2215.15 721.679 2216.6 719.107C2218.04 716.535 2220.27 714.018 2223.28 711.558C2226.28 708.985 2230.12 706.86 2234.8 705.183C2239.47 703.505 2245.21 702.666 2252 702.666C2259.01 702.666 2265.02 703.505 2270.03 705.183C2275.04 706.86 2279.05 709.209 2282.05 712.229C2285.06 715.248 2287.29 718.771 2288.73 722.798C2290.18 726.712 2290.9 730.962 2290.9 735.547V787.385C2290.9 788.616 2290.51 789.622 2289.74 790.405C2288.96 791.188 2287.95 791.579 2286.73 791.579H2270.37C2269.25 791.579 2268.31 791.188 2267.53 790.405C2266.75 789.622 2266.36 788.616 2266.36 787.385V781.178C2264.91 783.303 2262.96 785.316 2260.51 787.218C2258.06 789.007 2255.11 790.461 2251.66 791.579C2248.32 792.698 2244.37 793.257 2239.81 793.257ZM2246.49 775.81C2250.16 775.81 2253.44 775.027 2256.34 773.461C2259.23 771.896 2261.52 769.491 2263.19 766.248C2264.85 763.004 2265.69 758.922 2265.69 754.001V751.149L2250.16 753.666C2244.15 754.672 2239.75 756.182 2236.97 758.195C2234.19 760.208 2232.79 762.669 2232.79 765.577C2232.79 767.702 2233.41 769.547 2234.63 771.113C2235.97 772.678 2237.69 773.853 2239.81 774.636C2241.92 775.419 2244.15 775.81 2246.49 775.81Z" fill="white"></path>
        <path d="M2352.22 791.579C2345.31 791.579 2339.41 790.461 2334.52 788.224C2329.62 785.876 2325.89 782.297 2323.33 777.488C2320.88 772.678 2319.65 766.639 2319.65 759.369V724.14H2306.63C2305.41 724.14 2304.4 723.748 2303.62 722.965C2302.84 722.183 2302.46 721.176 2302.46 719.946V708.538C2302.46 707.308 2302.84 706.301 2303.62 705.518C2304.4 704.735 2305.41 704.344 2306.63 704.344H2319.65V676.663C2319.65 675.433 2320.04 674.427 2320.82 673.644C2321.71 672.861 2322.72 672.469 2323.83 672.469H2340.19C2341.42 672.469 2342.42 672.861 2343.2 673.644C2343.98 674.427 2344.37 675.433 2344.37 676.663V704.344H2365.24C2366.35 704.344 2367.3 704.735 2368.08 705.518C2368.86 706.301 2369.25 707.308 2369.25 708.538V719.946C2369.25 721.176 2368.86 722.183 2368.08 722.965C2367.3 723.748 2366.35 724.14 2365.24 724.14H2344.37V757.356C2344.37 761.606 2345.09 764.961 2346.54 767.422C2348.1 769.771 2350.77 770.945 2354.55 770.945H2366.74C2367.86 770.945 2368.8 771.336 2369.58 772.119C2370.36 772.902 2370.75 773.853 2370.75 774.971V787.385C2370.75 788.616 2370.36 789.622 2369.58 790.405C2368.8 791.188 2367.86 791.579 2366.74 791.579H2352.22Z" fill="white"></path>
        <path d="M2410.87 793.257C2404.97 793.257 2399.68 792.139 2395.01 789.902C2390.33 787.553 2386.6 784.422 2383.82 780.507C2381.03 776.593 2379.64 772.231 2379.64 767.422C2379.64 759.481 2382.82 753.218 2389.16 748.633C2395.62 744.047 2404.08 740.916 2414.54 739.238L2436.42 736.051V733.031C2436.42 728.669 2435.42 725.314 2433.41 722.965C2431.41 720.617 2427.9 719.442 2422.89 719.442C2419.22 719.442 2416.27 720.169 2414.04 721.623C2411.82 723.077 2410.09 724.979 2408.87 727.327C2407.97 728.781 2406.69 729.508 2405.02 729.508H2389.16C2387.94 729.508 2386.99 729.172 2386.32 728.501C2385.65 727.719 2385.38 726.824 2385.49 725.817C2385.49 723.916 2386.21 721.679 2387.66 719.107C2389.11 716.535 2391.33 714.018 2394.34 711.558C2397.34 708.985 2401.18 706.86 2405.86 705.183C2410.53 703.505 2416.27 702.666 2423.06 702.666C2430.07 702.666 2436.08 703.505 2441.09 705.183C2446.1 706.86 2450.11 709.209 2453.12 712.229C2456.12 715.248 2458.35 718.771 2459.8 722.798C2461.24 726.712 2461.97 730.962 2461.97 735.547V787.385C2461.97 788.616 2461.58 789.622 2460.8 790.405C2460.02 791.188 2459.02 791.579 2457.79 791.579H2441.43C2440.31 791.579 2439.37 791.188 2438.59 790.405C2437.81 789.622 2437.42 788.616 2437.42 787.385V781.178C2435.97 783.303 2434.02 785.316 2431.58 787.218C2429.13 789.007 2426.18 790.461 2422.73 791.579C2419.39 792.698 2415.43 793.257 2410.87 793.257ZM2417.55 775.81C2421.22 775.81 2424.51 775.027 2427.4 773.461C2430.3 771.896 2432.58 769.491 2434.25 766.248C2435.92 763.004 2436.75 758.922 2436.75 754.001V751.149L2421.22 753.666C2415.21 754.672 2410.81 756.182 2408.03 758.195C2405.25 760.208 2403.86 762.669 2403.86 765.577C2403.86 767.702 2404.47 769.547 2405.69 771.113C2407.03 772.678 2408.75 773.853 2410.87 774.636C2412.98 775.419 2415.21 775.81 2417.55 775.81Z" fill="white"></path>
        <path d="M2486.19 791.579C2485.08 791.579 2484.13 791.188 2483.35 790.405C2482.57 789.622 2482.18 788.616 2482.18 787.385V708.538C2482.18 707.308 2482.57 706.301 2483.35 705.518C2484.13 704.735 2485.08 704.344 2486.19 704.344H2502.56C2503.78 704.344 2504.78 704.735 2505.56 705.518C2506.34 706.301 2506.73 707.308 2506.73 708.538V715.081C2509.63 711.502 2513.36 708.538 2517.92 706.189C2522.48 703.841 2528.05 702.666 2534.62 702.666C2541.19 702.666 2546.92 704.176 2551.82 707.196C2556.83 710.104 2560.72 714.41 2563.51 720.113C2566.4 725.705 2567.85 732.528 2567.85 740.58V787.385C2567.85 788.616 2567.4 789.622 2566.51 790.405C2565.73 791.188 2564.79 791.579 2563.67 791.579H2545.97C2544.75 791.579 2543.75 791.188 2542.97 790.405C2542.19 789.622 2541.8 788.616 2541.8 787.385V741.587C2541.8 735.659 2540.35 731.074 2537.46 727.83C2534.67 724.475 2530.55 722.798 2525.1 722.798C2519.87 722.798 2515.69 724.475 2512.58 727.83C2509.46 731.074 2507.9 735.659 2507.9 741.587V787.385C2507.9 788.616 2507.51 789.622 2506.73 790.405C2505.95 791.188 2505.01 791.579 2503.89 791.579H2486.19Z" fill="white"></path>
        <path d="M2619.75 793.257C2613.29 793.257 2607.56 791.803 2602.55 788.895C2597.65 785.876 2593.81 781.57 2591.03 775.978C2588.36 770.274 2587.02 763.396 2587.02 755.343V708.538C2587.02 707.308 2587.41 706.301 2588.19 705.518C2588.97 704.735 2589.91 704.344 2591.03 704.344H2608.73C2609.95 704.344 2610.95 704.735 2611.73 705.518C2612.51 706.301 2612.9 707.308 2612.9 708.538V754.337C2612.9 766.863 2618.36 773.126 2629.27 773.126C2634.5 773.126 2638.62 771.504 2641.62 768.261C2644.74 764.906 2646.3 760.264 2646.3 754.337V708.538C2646.3 707.308 2646.69 706.301 2647.47 705.518C2648.25 704.735 2649.25 704.344 2650.47 704.344H2668.18C2669.29 704.344 2670.23 704.735 2671.01 705.518C2671.79 706.301 2672.18 707.308 2672.18 708.538V787.385C2672.18 788.616 2671.79 789.622 2671.01 790.405C2670.23 791.188 2669.29 791.579 2668.18 791.579H2651.81C2650.59 791.579 2649.58 791.188 2648.8 790.405C2648.03 789.622 2647.64 788.616 2647.64 787.385V780.843C2644.74 784.869 2641.01 787.945 2636.45 790.07C2631.88 792.195 2626.32 793.257 2619.75 793.257Z" fill="white"></path>
        <path d="M2734.95 791.579C2728.04 791.579 2722.14 790.461 2717.24 788.224C2712.35 785.876 2708.62 782.297 2706.06 777.488C2703.61 772.678 2702.38 766.639 2702.38 759.369V724.14H2689.36C2688.13 724.14 2687.13 723.748 2686.35 722.965C2685.57 722.183 2685.18 721.176 2685.18 719.946V708.538C2685.18 707.308 2685.57 706.301 2686.35 705.518C2687.13 704.735 2688.13 704.344 2689.36 704.344H2702.38V676.663C2702.38 675.433 2702.77 674.427 2703.55 673.644C2704.44 672.861 2705.44 672.469 2706.56 672.469H2722.92C2724.15 672.469 2725.15 672.861 2725.93 673.644C2726.71 674.427 2727.1 675.433 2727.1 676.663V704.344H2747.97C2749.08 704.344 2750.03 704.735 2750.81 705.518C2751.59 706.301 2751.98 707.308 2751.98 708.538V719.946C2751.98 721.176 2751.59 722.183 2750.81 722.965C2750.03 723.748 2749.08 724.14 2747.97 724.14H2727.1V757.356C2727.1 761.606 2727.82 764.961 2729.27 767.422C2730.83 769.771 2733.5 770.945 2737.28 770.945H2749.47C2750.59 770.945 2751.53 771.336 2752.31 772.119C2753.09 772.902 2753.48 773.853 2753.48 774.971V787.385C2753.48 788.616 2753.09 789.622 2752.31 790.405C2751.53 791.188 2750.59 791.579 2749.47 791.579H2734.95Z" fill="white"></path>
        <path d="M2802.28 793.257C2795.38 793.257 2789.42 792.474 2784.41 790.908C2779.52 789.231 2775.51 787.218 2772.39 784.869C2769.38 782.52 2767.1 780.172 2765.54 777.823C2764.1 775.363 2763.32 773.294 2763.21 771.616C2763.1 770.386 2763.48 769.379 2764.38 768.596C2765.27 767.813 2766.16 767.422 2767.05 767.422H2783.24C2783.58 767.422 2783.91 767.478 2784.25 767.59C2784.58 767.702 2784.91 767.981 2785.25 768.428C2786.7 769.435 2788.2 770.609 2789.76 771.952C2791.32 773.182 2793.1 774.244 2795.1 775.139C2797.22 776.034 2799.83 776.481 2802.95 776.481C2806.62 776.481 2809.74 775.754 2812.3 774.3C2814.86 772.734 2816.14 770.554 2816.14 767.758C2816.14 765.744 2815.53 764.067 2814.3 762.725C2813.19 761.383 2811.02 760.152 2807.79 759.034C2804.56 757.916 2799.78 756.685 2793.43 755.343C2787.42 754.001 2782.3 752.212 2778.07 749.975C2773.84 747.738 2770.67 744.942 2768.55 741.587C2766.43 738.12 2765.38 733.982 2765.38 729.173C2765.38 724.811 2766.71 720.617 2769.39 716.591C2772.17 712.564 2776.23 709.265 2781.57 706.693C2786.92 704.008 2793.6 702.666 2801.61 702.666C2807.74 702.666 2813.08 703.449 2817.64 705.015C2822.32 706.469 2826.22 708.37 2829.33 710.719C2832.45 712.956 2834.79 715.304 2836.35 717.765C2838.02 720.113 2838.91 722.182 2839.02 723.972C2839.13 725.09 2838.79 726.041 2838.02 726.824C2837.24 727.607 2836.35 727.998 2835.34 727.998H2820.48C2819.93 727.998 2819.42 727.942 2818.98 727.83C2818.53 727.607 2818.14 727.327 2817.81 726.992C2816.47 726.097 2815.08 725.09 2813.64 723.972C2812.3 722.742 2810.69 721.679 2808.79 720.784C2806.9 719.89 2804.45 719.442 2801.45 719.442C2797.77 719.442 2794.93 720.281 2792.93 721.959C2791.04 723.525 2790.09 725.538 2790.09 727.998C2790.09 729.564 2790.59 731.018 2791.59 732.36C2792.6 733.702 2794.66 734.932 2797.77 736.051C2800.89 737.169 2805.62 738.343 2811.97 739.574C2819.54 740.916 2825.55 742.929 2830 745.613C2834.45 748.297 2837.63 751.429 2839.52 755.008C2841.52 758.475 2842.52 762.221 2842.52 766.248C2842.52 771.504 2840.97 776.201 2837.85 780.339C2834.73 784.366 2830.17 787.553 2824.16 789.902C2818.26 792.139 2810.96 793.257 2802.28 793.257Z" fill="white"></path>
        <path d="M2908.98 793.257C2902.64 793.257 2897.35 792.195 2893.12 790.07C2888.89 787.833 2885.44 785.037 2882.77 781.682V787.385C2882.77 788.616 2882.38 789.622 2881.6 790.405C2880.82 791.188 2879.82 791.579 2878.59 791.579H2862.73C2861.5 791.579 2860.5 791.188 2859.72 790.405C2858.94 789.622 2858.55 788.616 2858.55 787.385V676.663C2858.55 675.433 2858.94 674.427 2859.72 673.644C2860.5 672.861 2861.5 672.469 2862.73 672.469H2879.93C2881.04 672.469 2881.99 672.861 2882.77 673.644C2883.55 674.427 2883.94 675.433 2883.94 676.663V713.235C2886.72 710.104 2890.17 707.587 2894.29 705.686C2898.41 703.673 2903.31 702.666 2908.98 702.666C2914.77 702.666 2919.78 703.673 2924.01 705.686C2928.35 707.587 2932.03 710.327 2935.03 713.906C2938.04 717.373 2940.32 721.511 2941.88 726.321C2943.55 731.13 2944.44 736.442 2944.55 742.258C2944.66 744.271 2944.72 746.172 2944.72 747.962C2944.72 749.639 2944.66 751.541 2944.55 753.666C2944.33 759.593 2943.38 765.017 2941.71 769.938C2940.15 774.747 2937.87 778.942 2934.87 782.52C2931.97 785.987 2928.35 788.672 2924.01 790.573C2919.78 792.362 2914.77 793.257 2908.98 793.257ZM2901.47 773.126C2905.7 773.126 2909.04 772.231 2911.49 770.442C2913.94 768.54 2915.66 766.08 2916.66 763.06C2917.78 760.04 2918.45 756.741 2918.67 753.162C2918.89 749.695 2918.89 746.228 2918.67 742.761C2918.45 739.182 2917.78 735.883 2916.66 732.863C2915.66 729.844 2913.94 727.439 2911.49 725.65C2909.04 723.748 2905.7 722.798 2901.47 722.798C2897.46 722.798 2894.18 723.692 2891.62 725.482C2889.17 727.271 2887.28 729.564 2885.94 732.36C2884.71 735.044 2884.05 737.952 2883.94 741.083C2883.82 743.097 2883.77 745.166 2883.77 747.291C2883.77 749.416 2883.82 751.541 2883.94 753.666C2884.16 757.021 2884.83 760.152 2885.94 763.06C2887.05 765.968 2888.89 768.373 2891.45 770.274C2894.01 772.175 2897.35 773.126 2901.47 773.126Z" fill="white"></path>
        <path d="M3001.17 793.257C2988.37 793.257 2978.18 789.678 2970.61 782.52C2963.15 775.363 2959.2 764.961 2958.76 751.317C2958.76 750.422 2958.76 749.248 2958.76 747.794C2958.76 746.228 2958.76 744.998 2958.76 744.103C2959.2 735.492 2961.15 728.11 2964.6 721.959C2968.05 715.696 2972.89 710.943 2979.13 707.699C2985.36 704.344 2992.65 702.666 3001 702.666C3010.35 702.666 3018.15 704.624 3024.38 708.538C3030.73 712.341 3035.46 717.597 3038.58 724.307C3041.8 730.906 3043.42 738.511 3043.42 747.123V750.981C3043.42 752.1 3042.97 753.05 3042.08 753.833C3041.3 754.616 3040.36 755.008 3039.24 755.008H2984.64C2984.64 755.119 2984.64 755.343 2984.64 755.679C2984.64 755.902 2984.64 756.126 2984.64 756.35C2984.75 759.929 2985.42 763.228 2986.64 766.248C2987.98 769.155 2989.82 771.504 2992.15 773.294C2994.6 775.083 2997.5 775.978 3000.84 775.978C3003.62 775.978 3005.9 775.586 3007.68 774.803C3009.46 774.021 3010.91 773.07 3012.02 771.952C3013.25 770.833 3014.14 769.882 3014.7 769.1C3015.7 767.981 3016.48 767.31 3017.03 767.086C3017.7 766.751 3018.7 766.583 3020.04 766.583H3037.41C3038.52 766.583 3039.41 766.919 3040.08 767.59C3040.86 768.149 3041.19 768.988 3041.08 770.106C3040.97 771.896 3040.02 774.132 3038.24 776.817C3036.57 779.389 3034.07 781.961 3030.73 784.534C3027.39 786.994 3023.21 789.063 3018.2 790.741C3013.3 792.418 3007.63 793.257 3001.17 793.257ZM2984.64 739.741H3017.37V739.406C3017.37 735.38 3016.7 731.913 3015.36 729.005C3014.14 725.985 3012.3 723.636 3009.85 721.959C3007.4 720.281 3004.45 719.442 3001 719.442C2997.55 719.442 2994.6 720.281 2992.15 721.959C2989.7 723.636 2987.81 725.985 2986.48 729.005C2985.25 731.913 2984.64 735.38 2984.64 739.406V739.741Z" fill="white"></path>
        <path d="M3092.34 793.257C3086.77 793.257 3081.82 792.362 3077.48 790.573C3073.13 788.672 3069.46 785.987 3066.46 782.52C3063.45 778.942 3061.17 774.747 3059.61 769.938C3058.05 765.017 3057.1 759.593 3056.77 753.666C3056.66 751.541 3056.6 749.639 3056.6 747.962C3056.6 746.172 3056.66 744.271 3056.77 742.258C3056.99 736.442 3057.88 731.13 3059.44 726.321C3061.11 721.511 3063.39 717.373 3066.29 713.906C3069.29 710.327 3072.97 707.587 3077.31 705.686C3081.76 703.673 3086.77 702.666 3092.34 702.666C3098.13 702.666 3103.08 703.673 3107.2 705.686C3111.32 707.587 3114.71 710.104 3117.39 713.235V676.663C3117.39 675.433 3117.78 674.427 3118.55 673.644C3119.33 672.861 3120.34 672.469 3121.56 672.469H3138.76C3139.87 672.469 3140.82 672.861 3141.6 673.644C3142.38 674.427 3142.77 675.433 3142.77 676.663V787.385C3142.77 788.616 3142.38 789.622 3141.6 790.405C3140.82 791.188 3139.87 791.579 3138.76 791.579H3122.73C3121.62 791.579 3120.67 791.188 3119.89 790.405C3119.11 789.622 3118.72 788.616 3118.72 787.385V781.682C3115.94 785.037 3112.43 787.833 3108.2 790.07C3103.97 792.195 3098.68 793.257 3092.34 793.257ZM3100.02 773.126C3104.14 773.126 3107.42 772.175 3109.87 770.274C3112.43 768.373 3114.27 765.968 3115.38 763.06C3116.61 760.152 3117.27 757.021 3117.39 753.666C3117.61 751.541 3117.72 749.416 3117.72 747.291C3117.72 745.166 3117.61 743.097 3117.39 741.083C3117.27 737.952 3116.61 735.044 3115.38 732.36C3114.16 729.564 3112.26 727.271 3109.7 725.482C3107.26 723.692 3104.03 722.798 3100.02 722.798C3095.79 722.798 3092.45 723.748 3090 725.65C3087.55 727.439 3085.77 729.844 3084.66 732.863C3083.65 735.883 3083.04 739.182 3082.82 742.761C3082.49 746.228 3082.49 749.695 3082.82 753.162C3083.04 756.741 3083.65 760.04 3084.66 763.06C3085.77 766.08 3087.55 768.54 3090 770.442C3092.45 772.231 3095.79 773.126 3100.02 773.126Z" fill="white"></path>
        <path d="M3167.99 791.579C3166.88 791.579 3165.93 791.188 3165.16 790.405C3164.38 789.622 3163.99 788.616 3163.99 787.385V708.538C3163.99 707.42 3164.38 706.469 3165.16 705.686C3165.93 704.791 3166.88 704.344 3167.99 704.344H3184.36C3185.47 704.344 3186.42 704.791 3187.2 705.686C3188.09 706.469 3188.53 707.42 3188.53 708.538V715.248C3191.32 711.781 3194.71 709.097 3198.72 707.196C3202.84 705.295 3207.57 704.344 3212.91 704.344H3220.09C3221.21 704.344 3222.15 704.735 3222.93 705.518C3223.71 706.301 3224.1 707.308 3224.1 708.538V722.965C3224.1 724.196 3223.71 725.202 3222.93 725.985C3222.15 726.768 3221.21 727.159 3220.09 727.159H3205.4C3200.5 727.159 3196.66 728.557 3193.88 731.353C3191.09 734.038 3189.7 737.896 3189.7 742.929V787.385C3189.7 788.616 3189.31 789.622 3188.53 790.405C3187.75 791.188 3186.75 791.579 3185.53 791.579H3167.99Z" fill="white"></path>
        <path d="M3240.56 791.579C3239.45 791.579 3238.5 791.188 3237.72 790.405C3236.94 789.622 3236.55 788.616 3236.55 787.385V708.538C3236.55 707.308 3236.94 706.301 3237.72 705.518C3238.5 704.735 3239.45 704.344 3240.56 704.344H3257.26C3258.48 704.344 3259.49 704.735 3260.26 705.518C3261.04 706.301 3261.43 707.308 3261.43 708.538V787.385C3261.43 788.616 3261.04 789.622 3260.26 790.405C3259.49 791.188 3258.48 791.579 3257.26 791.579H3240.56ZM3240.06 690.923C3238.95 690.923 3238 690.532 3237.22 689.749C3236.44 688.966 3236.05 687.959 3236.05 686.729V673.308C3236.05 672.078 3236.44 671.071 3237.22 670.289C3238 669.394 3238.95 668.946 3240.06 668.946H3257.59C3258.82 668.946 3259.82 669.394 3260.6 670.289C3261.49 671.071 3261.93 672.078 3261.93 673.308V686.729C3261.93 687.959 3261.49 688.966 3260.6 689.749C3259.82 690.532 3258.82 690.923 3257.59 690.923H3240.06Z" fill="white"></path>
        <path d="M3271.6 823.454C3270.37 823.454 3269.37 823.063 3268.59 822.28C3267.81 821.497 3267.42 820.49 3267.42 819.26V807.852C3267.42 806.622 3267.81 805.615 3268.59 804.833C3269.37 804.05 3270.37 803.658 3271.6 803.658H3276.94C3279.95 803.658 3282.23 803.043 3283.79 801.813C3285.46 800.695 3286.57 799.129 3287.13 797.116C3287.69 795.102 3287.96 792.866 3287.96 790.405V708.538C3287.96 707.308 3288.35 706.301 3289.13 705.518C3289.91 704.735 3290.86 704.344 3291.97 704.344H3309.5C3310.62 704.344 3311.56 704.735 3312.34 705.518C3313.12 706.301 3313.51 707.308 3313.51 708.538V790.908C3313.51 797.731 3312.23 803.546 3309.67 808.356C3307.11 813.277 3303.27 817.023 3298.15 819.596C3293.14 822.168 3286.91 823.454 3279.45 823.454H3271.6ZM3291.47 690.923C3290.36 690.923 3289.41 690.532 3288.63 689.749C3287.85 688.966 3287.46 687.959 3287.46 686.729V673.308C3287.46 672.078 3287.85 671.071 3288.63 670.289C3289.41 669.394 3290.36 668.946 3291.47 668.946H3309.84C3311.06 668.946 3312.07 669.394 3312.84 670.289C3313.62 671.071 3314.01 672.078 3314.01 673.308V686.729C3314.01 687.959 3313.62 688.966 3312.84 689.749C3312.07 690.532 3311.06 690.923 3309.84 690.923H3291.47Z" fill="white"></path>
        <path d="M3348.25 791.579C3347.03 791.579 3346.03 791.188 3345.25 790.405C3344.47 789.622 3344.08 788.616 3344.08 787.385V724.14H3331.05C3329.83 724.14 3328.83 723.748 3328.05 722.965C3327.27 722.183 3326.88 721.176 3326.88 719.946V708.538C3326.88 707.308 3327.27 706.301 3328.05 705.518C3328.83 704.735 3329.83 704.344 3331.05 704.344H3344.08V698.305C3344.08 691.147 3345.41 685.275 3348.08 680.69C3350.76 676.104 3354.65 672.749 3359.77 670.624C3364.89 668.499 3371.18 667.437 3378.64 667.437H3390.83C3392.06 667.437 3393.06 667.828 3393.84 668.611C3394.62 669.394 3395.01 670.4 3395.01 671.631V683.038C3395.01 684.269 3394.62 685.275 3393.84 686.058C3393.06 686.841 3392.06 687.232 3390.83 687.232H3379.65C3375.53 687.232 3372.63 688.239 3370.96 690.252C3369.4 692.265 3368.62 695.229 3368.62 699.143V704.344H3389.16C3390.39 704.344 3391.39 704.735 3392.17 705.518C3392.95 706.301 3393.34 707.308 3393.34 708.538V719.946C3393.34 721.176 3392.95 722.183 3392.17 722.965C3391.39 723.748 3390.39 724.14 3389.16 724.14H3368.62V787.385C3368.62 788.616 3368.23 789.622 3367.46 790.405C3366.68 791.188 3365.73 791.579 3364.62 791.579H3348.25Z" fill="white"></path>
      </svg>
