<svg xmlns="http://www.w3.org/2000/svg" fill="none" viewBox="0 0 150 42" class="VectorGraphic_VectorGraphic__zXonf"><rect width="41.359" height="41.359" y="0.32" fill="#fff" rx="7"></rect><path fill="#0722A6" fill-rule="evenodd" d="M6.795.32A6.795 6.795 0 0 0 0 7.115v27.77a6.795 6.795 0 0 0 6.795 6.795h27.77a6.795 6.795 0 0 0 6.794-6.795V31.34h-2.688v3.515a4.136 4.136 0 0 1-4.136 4.136H7.238a4.136 4.136 0 0 1-4.136-4.136V7.558a4.136 4.136 0 0 1 4.136-4.136h27.297a4.136 4.136 0 0 1 4.136 4.136v2.068h2.688v-2.51A6.795 6.795 0 0 0 34.566.32zm34.564 12.408h-2.688v15.51h2.688zm-6.824-7.031H7.238a1.86 1.86 0 0 0-1.861 1.861v27.297c0 1.028.833 1.862 1.86 1.862h27.298a1.86 1.86 0 0 0 1.861-1.861V31.34h-.724a1.551 1.551 0 0 1 0-3.102h.724v-15.51h-.724a1.551 1.551 0 0 1 0-3.102h.724V7.558a1.86 1.86 0 0 0-1.86-1.861ZM31.02 21c0 5.71-4.63 10.34-10.34 10.34S10.34 26.71 10.34 21s4.63-10.34 10.34-10.34S31.02 15.29 31.02 21m-10.34 7.583a7.583 7.583 0 1 0 0-15.166 7.583 7.583 0 0 0 0 15.166" clip-rule="evenodd"></path><circle cx="20.68" cy="21" r="4.136" fill="#EB5372"></circle><path fill="#fff" d="M53.243 15.663q-.81 0-1.362-.532-.531-.552-.532-1.361c-.001-.809.178-.986.532-1.34a1.85 1.85 0 0 1 1.362-.553q.807 0 1.36.553.554.531.554 1.34c0 .809-.184.993-.553 1.361q-.554.532-1.361.532m.872 1.702q.425 0 .702.276a.95.95 0 0 1 .276.702v10.231q0 2.148-1.02 3.34-1.022 1.19-2.894 1.19-1.361 0-2.233-.68-.893-.66-.893-1.701 0-.702.446-1.149.447-.425 1.17-.425.638 0 1.085.404.447.425.51 1.063.469-.127.681-.617.213-.467.213-1.425v-8.72h-.383q-.425 0-.68-.192-.256-.213-.256-.638v-.83q0-.425.255-.617.255-.212.66-.212h2.36Zm8.715 10.848q-2.468 0-3.85-1.425-1.383-1.447-1.383-4 0-2.616 1.446-4.126 1.447-1.51 3.957-1.51 2.467 0 3.85 1.446 1.382 1.426 1.382 3.957 0 2.616-1.446 4.148-1.447 1.51-3.956 1.51m.02-2.446q2.383 0 2.383-3.191 0-2.978-2.255-2.978-1.148 0-1.765.83-.617.807-.617 2.34 0 1.467.574 2.233.575.766 1.68.766m18.186-.256q.404 0 .66.213.255.191.254.617v.83q0 .425-.255.638-.255.19-.66.191h-2.36a1 1 0 0 1-.702-.276 1 1 0 0 1-.277-.702v-1.15a4 4 0 0 1-1.297 1.681q-.872.66-1.83.66-1.744 0-2.658-1.128-.915-1.127-.915-3.233v-3.999h-.383q-.915 0-.914-.83v-.829q0-.83.914-.83h2.361q.426 0 .702.277a.95.95 0 0 1 .277.702v4.68q0 1.553.297 2.148.32.596 1.15.596.615 0 1.148-.383.53-.384.83-1.021.318-.66.318-1.383v-3.127h-.383q-.425 0-.68-.191-.255-.213-.255-.638v-.83q0-.425.255-.617.255-.212.68-.212h2.361q.405 0 .681.276a.95.95 0 0 1 .277.702v7.168zm17.95-8.146q.425 0 .68.212.255.192.256.617v.83q0 .425-.256.638-.255.192-.68.191h-.383l-2.489 7.509a.96.96 0 0 1-.34.468.8.8 0 0 1-.51.17h-1.085a.88.88 0 0 1-.532-.17 1.2 1.2 0 0 1-.32-.468l-1.892-5.169-1.894 5.169a.96.96 0 0 1-.34.468.8.8 0 0 1-.51.17h-1.085a.9.9 0 0 1-.553-.17 1 1 0 0 1-.32-.468l-2.488-7.509h-.383q-.915 0-.914-.83v-.829q0-.83.914-.83h3.808q.915 0 .914.83v.83q0 .83-.914.83h-.383l1.446 4.488 1.66-4.552q.106-.299.318-.468a.9.9 0 0 1 .532-.17h.894q.297 0 .51.17a1.1 1.1 0 0 1 .362.468l1.638 4.53 1.446-4.467h-.383q-.915 0-.915-.83v-.829q0-.83.915-.83z"></path><circle cx="108.017" cy="21" r="3.25" fill="#EB5372"></circle><path fill="#fff" d="M118.151 15.663q-.808 0-1.361-.532-.532-.552-.532-1.361c0-.809.177-.986.532-1.34a1.85 1.85 0 0 1 1.361-.553q.809 0 1.34.553.553.531.553 1.34c0 .809-.184.993-.553 1.361q-.531.532-1.34.532M116.662 28q-.404 0-.659-.191-.255-.213-.255-.639v-.83q0-.424.255-.616.255-.213.659-.213h.404v-5.658h-.404q-.404 0-.659-.191-.255-.213-.255-.638v-.83q0-.83.914-.83h2.361a.95.95 0 0 1 .702.277.95.95 0 0 1 .277.702v7.168h.383q.425 0 .68.213.255.191.256.617v.83q0 .425-.256.638-.255.19-.68.191zm17.016-2.489q.426 0 .681.213.255.191.255.617v.83q0 .425-.255.638-.255.19-.681.191h-2.339a1 1 0 0 1-.702-.276 1 1 0 0 1-.277-.702V26a3.37 3.37 0 0 1-1.297 1.616 3.63 3.63 0 0 1-2.021.596q-1.914 0-3.042-1.425-1.106-1.447-1.106-3.893 0-2.722 1.255-4.233 1.256-1.51 3.51-1.51.808 0 1.489.34.702.32 1.212.915v-3.659h-.404q-.404 0-.659-.191-.256-.213-.256-.638v-.83q0-.425.256-.617.255-.212.659-.212h2.382q.405 0 .681.276a.95.95 0 0 1 .277.702V25.51h.382Zm-5.721.256a2 2 0 0 0 1.212-.405q.553-.404.872-1.106a3.65 3.65 0 0 0 .319-1.531v-2.106a2.8 2.8 0 0 0-1.021-.744 2.9 2.9 0 0 0-1.233-.277q-1.064 0-1.638.85-.575.83-.575 2.404 0 1.383.532 2.149.553.766 1.532.766"></path></svg>
